<svg xmlns:mydata="http://www.w3.org/2000/svg" mydata:contrastcolor="ffffff" mydata:template="Default" mydata:presentation="2.5" mydata:layouttype="undefined" mydata:specialfontid="undefined" mydata:id1="628" mydata:id2="955" mydata:companyname="leve livet" mydata:companytagline="" version="1.1" xmlns="http://www.w3.org/2000/svg" xmlns:xlink="http://www.w3.org/1999/xlink" viewBox="0 0 550 470" style="height: 787px;"><g fill="#ce0f69" fill-rule="none" stroke="none" stroke-width="1" stroke-linecap="butt" stroke-linejoin="miter" stroke-miterlimit="10" stroke-dasharray="" stroke-dashoffset="0" font-family="none" font-weight="none" font-size="none" text-anchor="none" style="mix-blend-mode: normal"><g data-paper-data="{&quot;isGlobalGroup&quot;:true,&quot;bounds&quot;:{&quot;x&quot;:68.01887912692432,&quot;y&quot;:115.00000000000001,&quot;width&quot;:413.96224174615134,&quot;height&quot;:240}}"><g data-paper-data="{&quot;isSecondaryText&quot;:true}" fill-rule="nonzero" id="element-id-96842"><path d="M256.97916,327.4451c0,-6.44915 0,-12.90077 -0.00248,-19.34991v-1.61361h-3.81158v24.77511h10.26321v-3.81158z" data-paper-data="{&quot;glyphName&quot;:&quot;L&quot;,&quot;glyphIndex&quot;:0,&quot;firstGlyphOfWord&quot;:true,&quot;word&quot;:1}" id="element-id-70701"></path><path d="M296.37565,331.25668v-24.77511h-3.81158v24.77511z" data-paper-data="{&quot;glyphName&quot;:&quot;I&quot;,&quot;glyphIndex&quot;:1,&quot;word&quot;:1}" id="element-id-94896"></path><path d="M333.61463,306.48157h-3.95882l6.52418,24.77511h3.07716l6.59638,-24.77511h-3.95634l-4.17862,16.49255z" data-paper-data="{&quot;glyphName&quot;:&quot;V&quot;,&quot;glyphIndex&quot;:2,&quot;word&quot;:1}" id="element-id-46"></path><path d="M394.96886,310.29316v-3.81158h-11.13992v24.77511h11.13992v-3.81158h-7.32833v-6.66894h5.4974v-3.81158h-5.4974v-6.67142z" data-paper-data="{&quot;glyphName&quot;:&quot;E&quot;,&quot;glyphIndex&quot;:3,&quot;word&quot;:1}" id="element-id-73941"></path><path d="M440.2243,310.29316v-3.81158h-12.09414v3.81158h4.17862v20.96353h3.81158v-20.96353z" data-paper-data="{&quot;glyphName&quot;:&quot;T&quot;,&quot;glyphIndex&quot;:4,&quot;lastGlyphOfWord&quot;:true,&quot;word&quot;:1}" id="element-id-49873"></path></g><g data-paper-data="{&quot;isPrimaryText&quot;:true}" fill-rule="nonzero" id="element-id-54685"><path d="M329.9183,138.92606c-50.7159,4.8573 -99.28888,150.2905 -65.57352,148.4333c8.00025,-0.42859 47.57294,-37.71549 51.14449,-45.14429c2.28579,-4.8573 -3.28582,-4.14299 -5.85733,-1.57148c-3.0001,4.42871 -40.00127,40.00127 -44.28712,40.287c-6.00019,0.28572 6.57164,-45.00143 9.14315,-51.85879c92.28865,-1.42862 106.57482,-95.00302 55.43034,-90.14573zM276.77376,223.07159c6.85736,-17.71485 20.42922,-51.14449 37.42976,-68.57361c19.14347,-19.71491 45.43002,-8.85742 38.42979,19.57205c-5.42874,22.0007 -29.85809,48.14439 -75.85956,49.00156z" data-paper-data="{&quot;glyphName&quot;:&quot;l&quot;,&quot;glyphIndex&quot;:0,&quot;firstGlyphOfWord&quot;:true,&quot;word&quot;:1}" id="element-id-82431"></path><path d="M319.77512,251.21534c9.85746,-2.42865 22.85787,-5.14302 28.14375,-14.85762c1.57148,-3.0001 2.28579,-6.42878 1.14289,-9.42887c-3.57154,-9.57173 -16.28623,-9.28601 -23.71504,-4.57157c-10.00032,6.14305 -17.57199,18.71488 -19.42919,30.14382c-1.8572,12.00038 2.71437,25.7151 16.85768,25.7151c17.57199,0 35.28684,-21.85784 45.28716,-35.00111c3.0001,-3.57154 -2.14293,-6.85736 -4.42871,-3.42868c-6.28591,9.7146 -26.00083,31.42957 -37.14404,31.42957c-9.00029,0 -8.85742,-14.00045 -6.7145,-20.00064zM321.91805,244.64371c2.57151,-7.00022 6.7145,-15.14334 14.28617,-17.71485c6.28591,-2.14293 10.14318,3.7144 4.57157,9.28601c-4.8573,5.00016 -12.28611,6.85736 -18.85774,8.42884z" data-paper-data="{&quot;glyphName&quot;:&quot;e&quot;,&quot;glyphIndex&quot;:1,&quot;word&quot;:1}" id="element-id-46155"></path><path d="M378.06269,228.07175c0.28572,-3.57154 -11.28607,-4.28585 -12.28611,0.14286c-1.57148,6.57164 -11.5718,48.14439 2.85723,48.14439c1.8572,0 3.85727,-0.71431 6.14305,-2.00006c8.14312,-5.00016 16.85768,-16.57196 22.42929,-24.57221c10.14318,9.28601 24.71507,1.14289 31.28671,-7.28595c3.28582,-3.0001 -1.14289,-7.14308 -4.00013,-3.57154c-5.42874,6.00019 -17.57199,14.14331 -23.8579,5.71447c4.57157,-7.00022 11.71466,-19.57205 10.57177,-28.00089c-1.00003,-7.57167 -8.00025,-8.42884 -13.00041,-2.71437c-6.57164,7.28595 -6.85736,22.85787 -4.28585,31.00099c-3.28582,4.8573 -18.57202,26.00083 -22.28642,26.00083c-2.00006,0 5.42874,-41.28703 6.42878,-42.85851zM399.20622,236.78631c-0.14286,-3.85727 2.14293,-20.57208 4.71444,-20.57208c5.28588,0 -3.0001,17.28626 -4.71444,20.57208z" data-paper-data="{&quot;glyphName&quot;:&quot;v&quot;,&quot;glyphIndex&quot;:2,&quot;word&quot;:1}" id="element-id-61798"></path><path d="M432.77872,251.21534c9.85746,-2.42865 22.85787,-5.14302 28.14375,-14.85762c1.57148,-3.0001 2.28579,-6.42878 1.14289,-9.42887c-3.57154,-9.57173 -16.28623,-9.28601 -23.71504,-4.57157c-10.00032,6.14305 -17.57199,18.71488 -19.42919,30.14382c-1.8572,12.00038 2.71437,25.7151 16.85768,25.7151c17.57199,0 35.28684,-21.85784 45.28716,-35.00111c3.0001,-3.57154 -2.14293,-6.85736 -4.42871,-3.42868c-6.28591,9.7146 -26.00083,31.42957 -37.14404,31.42957c-9.00029,0 -8.85742,-14.00045 -6.7145,-20.00064zM434.92165,244.64371c2.57151,-7.00022 6.7145,-15.14334 14.28617,-17.71485c6.28591,-2.14293 10.14318,3.7144 4.57157,9.28601c-4.8573,5.00016 -12.28611,6.85736 -18.85774,8.42884z" data-paper-data="{&quot;glyphName&quot;:&quot;e&quot;,&quot;glyphIndex&quot;:3,&quot;lastGlyphOfWord&quot;:true,&quot;word&quot;:1}" id="element-id-50078"></path></g><g data-paper-data="{&quot;fillRule&quot;:&quot;evenodd&quot;,&quot;fillRuleOriginal&quot;:&quot;evenodd&quot;,&quot;isIcon&quot;:true,&quot;iconStyle&quot;:&quot;standalone&quot;,&quot;selectedEffects&quot;:{&quot;container&quot;:&quot;&quot;,&quot;transformation&quot;:&quot;&quot;,&quot;pattern&quot;:&quot;&quot;},&quot;bounds&quot;:{&quot;x&quot;:68.01887912692432,&quot;y&quot;:115.00000000000001,&quot;width&quot;:149.5694800224254,&quot;height&quot;:240},&quot;iconType&quot;:&quot;icon&quot;,&quot;rawIconId&quot;:&quot;366137&quot;,&quot;isDetailed&quot;:false,&quot;suitableAsStandaloneIcon&quot;:true}" fill-rule="evenodd" id="element-id-44929"><path d="M175.16645,115c1.48949,0.52381 2.48723,1.55006 2.42309,3.63463c-13.24504,47.77764 -34.39007,89.56883 -52.12139,134.5528c-10.54044,26.73595 -22.71292,51.35527 -33.93752,78.78252c-3.16783,7.73608 -4.9994,18.33709 -13.33412,23.03005c32.11308,-82.37796 67.05547,-157.58285 96.96995,-240zM124.25304,118.63463c-12.43615,21.76506 -5.69783,59.47619 13.33412,67.88218c7.50089,-8.6091 12.54306,-79.33128 -13.33412,-67.88218zM127.89124,121.06128c9.88835,9.96674 10.55826,29.80045 8.48082,48.48319c-11.33864,-8.11022 -15.41156,-32.73667 -8.48082,-48.48319zM158.19413,193.78965c32.02399,-2.72598 51.27331,-18.22307 59.39423,-44.84856c-16.88681,0.26012 -36.97708,10.99656 -48.48319,21.81851c-6.01853,5.65151 -11.77337,14.53141 -10.91104,23.03005zM211.53419,152.57216c-8.45231,20.23637 -23.3757,34.00523 -47.27521,38.79439c1.54294,-22.94453 26.43307,-31.27925 47.27521,-38.79439zM117.1256,244.56195c0.5484,-0.97494 1.0968,-1.94952 3.48925,-1.08113c-0.60292,-5.47583 -0.36061,-12.37523 -0.10262,-19.72645c0.75472,-21.50136 1.64521,-46.86792 -18.07412,-51.78323c-6.53521,3.33532 -9.69949,21.23411 -9.69949,30.30289c0,19.54151 15.14788,36.43544 23.03005,43.63702c0.70769,-0.19492 1.03231,-0.77218 1.35694,-1.34909zM101.22299,179.24397c13.92564,9.11509 16.01378,31.71042 12.12258,50.90984c-9.73512,-11.38853 -17.76696,-31.43604 -12.12258,-50.90984zM135.16764,248.33769c27.87623,4.05511 57.13861,-17.48189 65.45551,-35.1562c-4.75033,1.7065 -7.64948,-0.76969 -10.59638,-3.28685c-2.22817,-1.90355 -4.48379,-3.82991 -7.58748,-3.98954c-7.89642,-0.40266 -27.12792,10.81126 -35.15263,18.18743c-4.49698,4.13351 -10.21974,12.50029 -8.48082,16.96876c10.04514,-16.30597 30.72692,-34.92101 54.54449,-23.03005c-8.44518,10.27319 -23.63582,22.5383 -40.00237,25.44958c-1.98373,0.35455 -4.38544,0.06485 -6.78679,-0.2252c-5.31797,-0.64212 -10.63238,-1.28388 -11.39352,5.08207zM74.55474,279.84856c6.20382,8.24207 16.05654,10.91104 24.24516,15.75721c4.52191,-21.72229 0.30644,-64.19765 -20.60696,-75.14788c-9.3289,14.82361 -15.50778,43.62276 -3.6382,59.39066zM76.9814,230.15382c15.49709,10.44067 13.70828,38.74451 18.18031,56.96758c-12.84238,-11.65934 -26.95332,-31.34695 -18.18031,-56.96758zM110.92248,304.09016c27.24552,-1.06188 49.74462,-17.30016 63.03242,-36.36061c-28.47132,-17.49614 -57.56622,15.52204 -63.03242,36.36061zM165.47052,268.94109c-9.27901,16.18126 -24.5516,26.36537 -47.27878,29.0949c8.97257,-16.97232 19.44174,-32.75448 47.27878,-29.0949z" data-paper-data="{&quot;isPathIcon&quot;:true}" id="element-id-53831"></path></g></g></g><g class="watermark-group" style="opacity:0.040000010281801224"><path class="watermark-path" d="M272.18,265.9l-15.09-18,4.86-4.08,15.09,18-4.86,4.08"></path></g><rect data-element-id="element-id-44929" stroke-width="2" fill="transparent" class="invisible-element-box grouping-element" x="68" y="115" width="150" height="240" data-element-name="isIcon"></rect><rect data-element-id="element-id-53831" stroke-width="2" fill="transparent" class="invisible-element-box individual-element" x="68" y="115" width="150" height="240"></rect><rect data-element-id="element-id-54685" stroke-width="2" fill="transparent" class="invisible-element-box grouping-element" x="253" y="139" width="229" height="149" data-element-name="isPrimaryText"></rect><rect data-element-id="element-id-82431" stroke-width="2" fill="transparent" class="invisible-element-box individual-element" x="253" y="139" width="106" height="149"></rect><rect data-element-id="element-id-96842" stroke-width="2" fill="transparent" class="invisible-element-box grouping-element" x="253" y="306" width="187" height="25" data-element-name="isSecondaryText"></rect><rect data-element-id="element-id-61798" stroke-width="2" fill="transparent" class="invisible-element-box individual-element" x="361" y="210" width="69" height="66"></rect><rect data-element-id="element-id-46155" stroke-width="2" fill="transparent" class="invisible-element-box individual-element" x="306" y="219" width="63" height="59"></rect><rect data-element-id="element-id-50078" stroke-width="2" fill="transparent" class="invisible-element-box individual-element" x="419" y="219" width="63" height="59"></rect><rect data-element-id="element-id-46" stroke-width="2" fill="transparent" class="invisible-element-box individual-element" x="330" y="306" width="16" height="25"></rect><rect data-element-id="element-id-49873" stroke-width="2" fill="transparent" class="invisible-element-box individual-element" x="428" y="306" width="12" height="25"></rect><rect data-element-id="element-id-73941" stroke-width="2" fill="transparent" class="invisible-element-box individual-element" x="384" y="306" width="11" height="25"></rect><rect data-element-id="element-id-70701" stroke-width="2" fill="transparent" class="invisible-element-box individual-element" x="253" y="306" width="10" height="25"></rect><rect data-element-id="element-id-94896" stroke-width="2" fill="transparent" class="invisible-element-box individual-element" x="293" y="306" width="4" height="25"></rect></svg>