<svg xmlns:mydata="http://www.w3.org/2000/svg" mydata:contrastcolor="ffffff" mydata:template="InvertedHex1" mydata:presentation="2.5" mydata:layouttype="undefined" mydata:specialfontid="undefined" mydata:id1="637" mydata:id2="1029" mydata:companyname="Bread Fast" mydata:companytagline="" version="1.1" xmlns="http://www.w3.org/2000/svg" xmlns:xlink="http://www.w3.org/1999/xlink" style="height: 787px;" viewBox="0 0 550 470"><g fill="rgba(255, 215, 0, .6)" fill-rule="none" stroke="none" stroke-width="1" stroke-linecap="butt" stroke-linejoin="miter" stroke-miterlimit="10" stroke-dasharray="" stroke-dashoffset="0" font-family="none" font-weight="none" font-size="none" text-anchor="none" style="mix-blend-mode: normal"><g data-paper-data="{&quot;isGlobalGroup&quot;:true,&quot;bounds&quot;:{&quot;x&quot;:179.48956788737956,&quot;y&quot;:114.99999999999997,&quot;width&quot;:191.0208642252408,&quot;height&quot;:239.99999999999997}}"><g data-paper-data="{&quot;isIcon&quot;:&quot;true&quot;,&quot;selectedEffects&quot;:{&quot;container&quot;:&quot;&quot;,&quot;transformation&quot;:&quot;&quot;,&quot;pattern&quot;:&quot;&quot;},&quot;fillRule&quot;:&quot;evenodd&quot;,&quot;fillRuleOriginal&quot;:&quot;evenodd&quot;,&quot;iconType&quot;:&quot;icon&quot;,&quot;rawIconId&quot;:&quot;2870322&quot;,&quot;combineTerms&quot;:&quot;bakery&quot;,&quot;iconStyle&quot;:&quot;standalone&quot;,&quot;bounds&quot;:{&quot;x&quot;:179.48956788737956,&quot;y&quot;:114.99999999999997,&quot;width&quot;:191.0208642252408,&quot;height&quot;:191.00553817520094},&quot;suitableAsStandaloneIcon&quot;:true}" fill-rule="evenodd" id="element-id-74767"><path d="M343.27336,157.05058l-4.93319,4.93276l7.68423,7.68423c3.6937,3.69413 3.6937,9.70471 0,13.39885l-98.46394,98.46438c-1.7897,1.78926 -4.16872,2.77451 -6.69943,2.77451c-2.5307,0 -4.90972,-0.98612 -6.69943,-2.77495l-7.6825,-7.6825l-4.91581,4.91538c-3.08917,3.08917 -3.15957,4.14743 -3.32994,6.70246c-0.09822,1.47244 -0.22034,3.30473 -0.8753,5.96233c-0.93136,3.77671 -2.97399,7.15141 -5.90714,9.75861c-3.49509,3.10872 -8.02323,4.81889 -12.74998,4.81889c-4.63766,0 -9.09975,-1.65628 -12.56311,-4.662c-4.08919,-3.54985 -6.44605,-8.47 -6.63641,-13.85649c-0.18774,-5.31217 1.85923,-10.51264 5.61596,-14.27023c2.52462,-2.52418 5.68637,-4.28998 9.14494,-5.10791c2.52852,-0.59758 4.30997,-0.75056 5.74068,-0.87356c2.75104,-0.23686 3.78019,-0.32508 7.00452,-3.54942l4.65461,-4.65504l-7.68076,-7.68076c-3.69413,-3.69413 -3.69413,-9.70471 0,-13.39885l98.46394,-98.46438c1.7897,-1.78926 4.16915,-2.77451 6.69943,-2.77451c2.5307,0 4.91016,0.98525 6.69943,2.77451l7.68554,7.68554l4.67069,-4.67069c3.22172,-3.22216 3.31038,-4.25043 3.54681,-6.9993c0.12299,-1.43028 0.27641,-3.21042 0.87356,-5.73765c0.81792,-3.45728 2.58242,-6.61772 5.10486,-9.13973c3.62808,-3.62764 8.45001,-5.62509 13.58008,-5.62509c5.56902,0 10.86554,2.42205 14.53142,6.6451c6.29003,7.2466 6.22267,18.12256 -0.15472,25.29875c-2.60502,2.93184 -5.97798,4.97318 -9.75295,5.9041c-2.65543,0.65451 -4.48685,0.77663 -5.95843,0.87486c-2.5533,0.16993 -3.6107,0.24033 -6.69769,3.32776zM335.88075,159.52391l-9.89289,-9.89289l4.66982,-4.67113c3.93577,-3.93577 4.26825,-5.8476 4.55292,-9.16016c0.11908,-1.38595 0.25424,-2.95661 0.79272,-5.23568c0.66886,-2.82841 2.11435,-5.4156 4.17959,-7.48127c2.97096,-2.97096 6.92064,-4.6068 11.12196,-4.6068c4.56204,0 8.90113,1.98571 11.90599,5.44733c5.14876,5.93147 5.09356,14.83478 -0.12864,20.71019c-2.13564,2.40293 -4.89799,4.07659 -7.98759,4.83801c-2.3586,0.58194 -3.95142,0.68798 -5.35606,0.78142c-3.22954,0.21513 -5.09313,0.50588 -8.92503,4.33822zM268.14897,134.23472c0,-2.40032 -1.94572,-4.34604 -4.34604,-4.34604c-2.40032,0 -4.34604,1.94572 -4.34604,4.34604c0,2.40032 1.94572,4.34604 4.34604,4.34604c2.40032,0 4.34604,-1.94572 4.34604,-4.34604zM334.57737,163.28628c0.1482,0.1482 0.31683,0.26424 0.49675,0.34769l8.49217,8.49174c2.33817,2.3386 2.33817,6.14357 0,8.48174l-98.46438,98.46481c-1.13301,1.13171 -2.63891,1.75624 -4.24086,1.75624c-1.60195,0 -3.10829,-0.62452 -4.24086,-1.75624l-8.43784,-8.43784c-0.08475,-0.20644 -0.21122,-0.40027 -0.37898,-0.56803l-12.35884,-12.35928c-0.16428,-0.16385 -0.35768,-0.29205 -0.56846,-0.37898l-8.4361,-8.4361c-2.3386,-2.3386 -2.3386,-6.144 0,-8.48261l98.46307,-98.46351c1.13301,-1.13301 2.63891,-1.75667 4.2413,-1.75667c1.60239,0 3.10829,0.62365 4.2413,1.75624l8.49217,8.49174c0.08345,0.18036 0.19948,0.34899 0.34812,0.49762zM227.29617,166.83004c0,4.55335 3.70413,8.25748 8.25748,8.25748c4.55292,0 8.25748,-3.70413 8.25748,-8.25748c0,-4.55335 -3.70413,-8.25748 -8.25748,-8.25748c-4.55335,0 -8.25748,3.70413 -8.25748,8.25748zM230.77301,166.83004c0,-2.63544 2.14477,-4.78065 4.78065,-4.78065c2.63588,0 4.78065,2.14433 4.78065,4.78065c0,2.63588 -2.14477,4.78065 -4.78065,4.78065c-2.63588,0 -4.78065,-2.14433 -4.78065,-4.78065zM202.95834,173.34911c0,-2.39945 -1.94572,-4.34604 -4.34604,-4.34604c-2.40032,0 -4.34604,1.94572 -4.34604,4.34604c0,2.40032 1.94572,4.34604 4.34604,4.34604c2.40032,0 4.34604,-1.94572 4.34604,-4.34604zM284.90253,181.36973c0.33942,0.339 0.7849,0.50892 1.22906,0.50892c0.44416,0 0.89007,-0.16949 1.22906,-0.50892l7.54473,-7.5456c0.67929,-0.67885 0.67929,-1.7797 0,-2.45855c-0.67885,-0.67929 -1.7797,-0.67929 -2.45812,0l-7.54473,7.5456c-0.67929,0.67885 -0.67929,1.7797 0,2.45855zM232.08638,256.82093c0.33986,0.33942 0.78447,0.50936 1.2295,0.50936c0.4446,0 0.88963,-0.16993 1.22906,-0.50936c0.67885,-0.67798 0.67885,-1.77883 0,-2.45812l-5.56468,-5.56511c-2.4942,-2.49463 -2.4942,-6.5534 0,-9.04803l47.06243,-47.06286c0.67929,-0.67885 0.67929,-1.77927 0,-2.45855c-0.67885,-0.67885 -1.7797,-0.67842 -2.45855,0l-47.06243,47.06243c-3.84972,3.8506 -3.84972,10.11541 0,13.96513zM351.15839,205.94442c0,4.55378 3.70413,8.25748 8.25748,8.25748c4.55292,0 8.25748,-3.70413 8.25748,-8.25748c0,-4.55335 -3.70369,-8.25748 -8.25748,-8.25748c-4.55335,0 -8.25748,3.70369 -8.25748,8.25748zM354.63522,205.94442c0,-2.63588 2.14477,-4.78065 4.78065,-4.78065c2.63588,0 4.78065,2.14477 4.78065,4.78065c0,2.63588 -2.14477,4.78065 -4.78065,4.78065c-2.63588,0 -4.78065,-2.14477 -4.78065,-4.78065zM198.6123,221.15644c0,-2.39945 -1.94572,-4.34604 -4.34604,-4.34604c-2.40032,0 -4.34604,1.94529 -4.34604,4.34604c0,2.39945 1.94572,4.34604 4.34604,4.34604c2.40032,0 4.34604,-1.94659 4.34604,-4.34604zM342.0317,229.84852c0,-2.39945 -1.94616,-4.34604 -4.34604,-4.34604c-2.40032,0 -4.34604,1.94529 -4.34604,4.34604c0,2.39945 1.94659,4.34604 4.34604,4.34604c2.39988,0 4.34604,-1.94659 4.34604,-4.34604zM314.21702,268.96291c0,5.75112 4.67938,10.4305 10.4305,10.4305c5.75112,0 10.4305,-4.67938 10.4305,-10.4305c0,-5.75068 -4.67938,-10.4305 -10.4305,-10.4305c-5.75112,0 -10.4305,4.67982 -10.4305,10.4305zM224.02187,271.39061l-9.90029,-9.90029l-4.65504,4.65548c-3.93795,3.93838 -5.85107,4.26955 -9.16537,4.55465c-1.38682,0.11864 -2.95879,0.25468 -5.23916,0.79272c-2.82928,0.66929 -5.41821,2.11565 -7.48606,4.18307c-3.077,3.077 -4.75327,7.33743 -4.59942,11.68912c0.15559,4.41037 2.08784,8.44306 5.44081,11.35273c2.83102,2.45725 6.48343,3.81105 10.28404,3.81105c3.87493,0 7.58254,-1.39899 10.44006,-3.93882c2.4051,-2.13825 4.07919,-4.90147 4.84106,-7.99324c0.58194,-2.36077 0.68798,-3.95447 0.78185,-5.36041c0.21513,-3.23085 0.50588,-5.09574 4.3404,-8.92938zM317.69386,268.96291c0,-3.83408 3.11959,-6.95367 6.95367,-6.95367c3.83408,0 6.95367,3.11959 6.95367,6.95367c0,3.83408 -3.11959,6.95367 -6.95367,6.95367c-3.83408,0 -6.95367,-3.11959 -6.95367,-6.95367zM276.84106,282.00104c0,-2.39945 -1.94572,-4.34604 -4.34604,-4.34604c-2.40032,0 -4.34604,1.94529 -4.34604,4.34604c0,2.39945 1.94572,4.34561 4.34604,4.34561c2.40032,0 4.34604,-1.94616 4.34604,-4.34561z" data-paper-data="{&quot;isPathIcon&quot;:true}" id="element-id-37894"></path></g></g></g><g class="watermark-group" style="opacity:0.040000010281801224"><path class="watermark-path" d="M129.52,370.3a11.88,11.88,0,0,1,2.58,5.58,12,12,0,0,1,.11,3,11.81,11.81,0,0,1-.64,2.93,12.34,12.34,0,0,1-1.41,2.72,11.65,11.65,0,0,1-2.13,2.32,12,12,0,0,1-2.64,1.69,13,13,0,0,1-2.91.9,12.47,12.47,0,0,1-3,.12,12.17,12.17,0,0,1-2.93-.64,11.8,11.8,0,0,1-2.72-1.38,12.19,12.19,0,0,1-4-4.79,11.85,11.85,0,0,1-.89-2.92,12.14,12.14,0,0,1-.13-3,11.54,11.54,0,0,1,.64-2.92,11.67,11.67,0,0,1,3.5-5,11.44,11.44,0,0,1,2.67-1.69,11.64,11.64,0,0,1,2.92-.91,10.71,10.71,0,0,1,3-.12,11.68,11.68,0,0,1,5.66,2,11.7,11.7,0,0,1,2.34,2.12m-1.4,8.76a13,13,0,0,1-1.22,2.32,9.68,9.68,0,0,1-1.81,2,7.44,7.44,0,0,1-2.38,1.37,6.17,6.17,0,0,1-5.11-.46,8.73,8.73,0,0,1-3.85-4.58,6.69,6.69,0,0,1-.34-2.66,6.09,6.09,0,0,1,.77-2.47,7.15,7.15,0,0,1,1.75-2.11,9.58,9.58,0,0,1,1.09-.81,8.23,8.23,0,0,1,1.12-.63,8.14,8.14,0,0,1,1.19-.46,12.71,12.71,0,0,1,1.32-.37l2,2.38a12.83,12.83,0,0,0-1.56.17,7.86,7.86,0,0,0-1.23.32,4.5,4.5,0,0,0-1,.49,6.41,6.41,0,0,0-.93.67,4.49,4.49,0,0,0-1.15,1.39,3.87,3.87,0,0,0-.45,1.58,4.12,4.12,0,0,0,.26,1.63,6.11,6.11,0,0,0,2.36,2.82,4.43,4.43,0,0,0,1.57.53,3.91,3.91,0,0,0,1.62-.17,4.71,4.71,0,0,0,1.57-.89,10.5,10.5,0,0,0,.83-.79,5.71,5.71,0,0,0,.65-.93,10.13,10.13,0,0,0,.54-1.14,12.24,12.24,0,0,0,.44-1.49l2,2.33m-14.46,4.55a8.86,8.86,0,0,0,2.78,2.22,9,9,0,0,0,3.29.94,9.15,9.15,0,0,0,3.39-.37,8.68,8.68,0,0,0,3.11-1.69,8.8,8.8,0,0,0,2.22-2.78,9.15,9.15,0,0,0,1-3.29,8.95,8.95,0,0,0-4.83-8.76,9,9,0,0,0-6.73-.57,9,9,0,0,0-5.33,4.47,8.94,8.94,0,0,0-.57,6.71,8.76,8.76,0,0,0,1.7,3.12"></path><path class="watermark-path" d="M147,349c-.48.12-1.09.31-1.82.57a24.37,24.37,0,0,0-2.4,1A28.35,28.35,0,0,0,140,352a20.72,20.72,0,0,0-2.71,1.94c-.7.59-1.28,1.11-1.74,1.57a15.07,15.07,0,0,0-1.1,1.22,4.09,4.09,0,0,0-.59.92,2.32,2.32,0,0,0-.22.64,1.16,1.16,0,0,0,0,.47,1.83,1.83,0,0,0,.18.29,1.15,1.15,0,0,0,1,.37,5.54,5.54,0,0,0,1.51-.38q.87-.35,1.95-.9l2.26-1.18q1.2-.65,2.49-1.29c.87-.44,1.73-.83,2.59-1.17a18.94,18.94,0,0,1,2.6-.81,9.27,9.27,0,0,1,2.46-.29,6.25,6.25,0,0,1,2.24.49,5.12,5.12,0,0,1,1.89,1.47,6.35,6.35,0,0,1,1.41,2.61,6,6,0,0,1,.09,2.6,8.3,8.3,0,0,1-.9,2.52,17.79,17.79,0,0,1-1.62,2.37,23.92,23.92,0,0,1-2,2.15c-.72.67-1.41,1.29-2.09,1.87a33.79,33.79,0,0,1-5.33,3.7,32.29,32.29,0,0,1-4.91,2.28l-3.61-4.3a21.38,21.38,0,0,0,5.39-1.87,27.2,27.2,0,0,0,5.4-3.56,21.59,21.59,0,0,0,2.38-2.27,8.67,8.67,0,0,0,1.18-1.7,2.32,2.32,0,0,0,.27-1.19,1.34,1.34,0,0,0-.28-.74,1.21,1.21,0,0,0-1-.42,4.32,4.32,0,0,0-1.55.34,15.77,15.77,0,0,0-2,.88c-.72.37-1.48.77-2.27,1.21l-2.45,1.3c-.85.45-1.7.85-2.56,1.21a22.37,22.37,0,0,1-2.54.86,10,10,0,0,1-2.43.32,5.76,5.76,0,0,1-2.2-.45,5,5,0,0,1-1.89-1.45,6.12,6.12,0,0,1-1.31-2.41,6,6,0,0,1-.1-2.41,8.28,8.28,0,0,1,.81-2.38,14.06,14.06,0,0,1,1.49-2.24,22.37,22.37,0,0,1,1.85-2.05q1-1,2-1.77c.7-.59,1.44-1.15,2.23-1.7s1.62-1.06,2.44-1.53,1.63-.91,2.43-1.3,1.58-.75,2.3-1L147,349"></path><path class="watermark-path" d="M186.76,337.57l-10.6-12.63,3.92,18.24-4.66,3.91-17.27-7,10.6,12.63-4.86,4.07-15.09-18,6.59-5.54,18.69,7.52-4.15-19.71,6.57-5.52,15.09,18-4.83,4.05"></path><path class="watermark-path" d="M208.84,313.24l-10,8.42,1.16,4.82L194.56,331l-5.68-25.89,5.42-4.55,24.51,10.09-5.42,4.55-4.55-2m-11.23,3.45,6.57-5.52-8.83-3.87,2.26,9.39"></path><path class="watermark-path" d="M227.49,281.38c-.48.12-1.09.31-1.82.57a24.37,24.37,0,0,0-2.4,1,26.11,26.11,0,0,0-2.7,1.47,20.72,20.72,0,0,0-2.71,1.94c-.7.59-1.28,1.11-1.74,1.57a13.39,13.39,0,0,0-1.1,1.22,4.29,4.29,0,0,0-.59.91,2.48,2.48,0,0,0-.22.65,1.16,1.16,0,0,0,0,.47,1.83,1.83,0,0,0,.18.29,1.15,1.15,0,0,0,1,.37,5.54,5.54,0,0,0,1.51-.38q.87-.34,2-.9l2.26-1.18q1.2-.64,2.49-1.29c.87-.44,1.73-.83,2.59-1.17a18.94,18.94,0,0,1,2.6-.81,9.27,9.27,0,0,1,2.46-.29,6.08,6.08,0,0,1,2.24.49,5.09,5.09,0,0,1,1.89,1.46,6.47,6.47,0,0,1,1.41,2.61,6.07,6.07,0,0,1,.09,2.61,8.3,8.3,0,0,1-.9,2.52,16.32,16.32,0,0,1-1.63,2.36,21.41,21.41,0,0,1-2,2.16c-.72.67-1.41,1.29-2.1,1.86a33.36,33.36,0,0,1-5.32,3.71,31.92,31.92,0,0,1-4.92,2.28l-3.6-4.3a21.38,21.38,0,0,0,5.39-1.87,27.2,27.2,0,0,0,5.4-3.56,21.59,21.59,0,0,0,2.38-2.27,8.67,8.67,0,0,0,1.18-1.7A2.32,2.32,0,0,0,231,293a1.34,1.34,0,0,0-.28-.74,1.21,1.21,0,0,0-1-.42,4.32,4.32,0,0,0-1.55.34,16.54,16.54,0,0,0-2,.88c-.71.37-1.47.77-2.26,1.21l-2.46,1.3c-.84.44-1.7.85-2.55,1.21a24.53,24.53,0,0,1-2.54.86A10,10,0,0,1,214,298a5.76,5.76,0,0,1-2.2-.45,5,5,0,0,1-1.89-1.45,6.12,6.12,0,0,1-1.31-2.41,5.78,5.78,0,0,1-.1-2.41,8,8,0,0,1,.81-2.38,14.61,14.61,0,0,1,1.49-2.25,22.26,22.26,0,0,1,1.85-2q1-1,2-1.77c.7-.59,1.44-1.15,2.23-1.7s1.62-1.06,2.44-1.53,1.63-.91,2.43-1.31,1.58-.74,2.3-1l3.5,4.16"></path><path class="watermark-path" d="M261.64,274.74l-6.29-7.5L243,277.61l6.3,7.5-4.86,4.07-15.09-18,4.85-4.08,5.49,6.55L252,263.3l-5.49-6.55,4.86-4.07,15.09,18-4.86,4.08"></path><path class="watermark-path" d="M272.18,265.9l-15.09-18,4.86-4.08,15.09,18-4.86,4.08"></path><path class="watermark-path" d="M299.65,242.85l-22.51-2.18L287.51,253l-4.85,4.08-15.1-18,5.28-4.43,22.56,2.22L285,224.5l4.83-4.06,15.09,18-5.26,4.42"></path><path class="watermark-path" d="M306.68,205.52a31.88,31.88,0,0,1,5.29-3.66,34.48,34.48,0,0,1,5.14-2.35l3.69,4.39a20.77,20.77,0,0,0-2.37.61,20.47,20.47,0,0,0-2.61,1,25.12,25.12,0,0,0-2.76,1.49,23.9,23.9,0,0,0-2.8,2,20.42,20.42,0,0,0-2.8,2.77,12.77,12.77,0,0,0-1.64,2.52,7,7,0,0,0-.68,2.24,6,6,0,0,0,.66,3.64,8.16,8.16,0,0,0,.94,1.38,9.12,9.12,0,0,0,1.08,1.07,6.39,6.39,0,0,0,1.47.91,6.73,6.73,0,0,0,1.88.48,6.54,6.54,0,0,0,2.28-.18,11.67,11.67,0,0,0,2.74-1.07,19.38,19.38,0,0,0,3.18-2.22c.57-.48,1.06-.92,1.46-1.31a14.57,14.57,0,0,0,1-1.13,11.46,11.46,0,0,0,.81-1.05l.74-1.09-1.82-2.17-5.45,4.57-3.31-3.94,10.31-8.65,7.71,9.19a29,29,0,0,1-1.67,2.43q-1,1.26-2.1,2.52c-.74.84-1.5,1.65-2.3,2.44s-1.58,1.5-2.33,2.14a31,31,0,0,1-3.59,2.61,22.55,22.55,0,0,1-3.64,1.83,15.64,15.64,0,0,1-3.63.89,10.72,10.72,0,0,1-3.49-.15,10.45,10.45,0,0,1-3.28-1.33,12.54,12.54,0,0,1-3-2.67,12,12,0,0,1-2.08-3.44,10.45,10.45,0,0,1-.71-3.5,11.14,11.14,0,0,1,.51-3.51,15.72,15.72,0,0,1,1.56-3.43,21.62,21.62,0,0,1,2.42-3.28,30.3,30.3,0,0,1,3.15-3"></path><path class="watermark-path" d="M336.91,211.59l-15.1-18,4.86-4.08,11.79,14,13.13-11,3.31,3.94-18,15.1"></path><path class="watermark-path" d="M374.54,164.71a12.28,12.28,0,0,1,2.59,4.81,10.44,10.44,0,0,1,0,5,14.62,14.62,0,0,1-2.33,5,25.55,25.55,0,0,1-4.56,4.85,26.07,26.07,0,0,1-5.6,3.67,14.79,14.79,0,0,1-5.38,1.43,10.43,10.43,0,0,1-4.94-.89,13.24,13.24,0,0,1-6.87-8.18,10.48,10.48,0,0,1,0-5,14.51,14.51,0,0,1,2.36-5,25.23,25.23,0,0,1,4.57-4.89,25,25,0,0,1,5.59-3.64,14.45,14.45,0,0,1,5.35-1.43,10.31,10.31,0,0,1,4.93.92,12.22,12.22,0,0,1,4.28,3.38m-4.91,4.11a8.36,8.36,0,0,0-2-1.72,5.5,5.5,0,0,0-2.65-.85,7.72,7.72,0,0,0-3.32.57,14.49,14.49,0,0,0-4,2.52,16.72,16.72,0,0,0-2.38,2.4,10.15,10.15,0,0,0-1.39,2.24,6.71,6.71,0,0,0-.56,2.1,5.69,5.69,0,0,0,.1,1.9,6.21,6.21,0,0,0,.61,1.69,9.85,9.85,0,0,0,1,1.44,10.48,10.48,0,0,0,1.26,1.23,6.67,6.67,0,0,0,1.57.92,6.1,6.1,0,0,0,1.85.41,6.8,6.8,0,0,0,2.15-.2,11.06,11.06,0,0,0,2.45-1,17.67,17.67,0,0,0,2.77-1.94,14.39,14.39,0,0,0,3.18-3.52,7.74,7.74,0,0,0,1.14-3.17,5.54,5.54,0,0,0-.37-2.74,8.52,8.52,0,0,0-1.36-2.3"></path><path class="watermark-path" d="M382.66,141.76A32.3,32.3,0,0,1,388,138.1a34.12,34.12,0,0,1,5.15-2.35l3.69,4.4a19.62,19.62,0,0,0-2.37.6,22.08,22.08,0,0,0-2.61,1,26,26,0,0,0-2.77,1.49,23.9,23.9,0,0,0-2.8,2,21,21,0,0,0-2.8,2.78,13.19,13.19,0,0,0-1.64,2.51,7.29,7.29,0,0,0-.68,2.24,6.36,6.36,0,0,0,.06,2,5.8,5.8,0,0,0,.61,1.68,8.12,8.12,0,0,0,.93,1.38,9.16,9.16,0,0,0,1.08,1.08,6.56,6.56,0,0,0,1.48.9,6,6,0,0,0,1.87.48,6.76,6.76,0,0,0,2.28-.17,12,12,0,0,0,2.74-1.08,18.57,18.57,0,0,0,3.18-2.22c.58-.48,1.06-.92,1.46-1.31s.75-.77,1.05-1.12.57-.72.81-1.06l.73-1.09-1.82-2.17-5.45,4.57-3.3-3.94,10.3-8.65,7.71,9.19a29,29,0,0,1-1.67,2.43q-1,1.26-2.1,2.52c-.73.84-1.5,1.66-2.3,2.44s-1.57,1.5-2.33,2.14a31,31,0,0,1-3.59,2.61,22.15,22.15,0,0,1-3.64,1.83,15.56,15.56,0,0,1-3.62.89,11,11,0,0,1-3.49-.14,10.84,10.84,0,0,1-3.28-1.33,12.82,12.82,0,0,1-3-2.68,12.12,12.12,0,0,1-2.08-3.43A10.71,10.71,0,0,1,375,155a11.18,11.18,0,0,1,.51-3.51,15.51,15.51,0,0,1,1.57-3.43,21.44,21.44,0,0,1,2.42-3.28,30.19,30.19,0,0,1,3.14-3"></path><path class="watermark-path" d="M428.63,119.31a12.26,12.26,0,0,1,2.59,4.82,10.44,10.44,0,0,1,0,5,14.53,14.53,0,0,1-2.34,5,25.29,25.29,0,0,1-4.56,4.86,26,26,0,0,1-5.59,3.67,14.84,14.84,0,0,1-5.38,1.43,10.61,10.61,0,0,1-4.95-.89,12.15,12.15,0,0,1-4.3-3.37,12,12,0,0,1-2.56-4.81,10.48,10.48,0,0,1,0-5,14.39,14.39,0,0,1,2.35-5,27.89,27.89,0,0,1,10.16-8.53,14.49,14.49,0,0,1,5.36-1.43,10.27,10.27,0,0,1,4.92.92,12.21,12.21,0,0,1,4.28,3.37m-4.91,4.12a8.17,8.17,0,0,0-2-1.72,5.58,5.58,0,0,0-2.65-.86,7.86,7.86,0,0,0-3.31.58,14.49,14.49,0,0,0-4,2.52,16.21,16.21,0,0,0-2.38,2.4,9.85,9.85,0,0,0-1.4,2.24,7,7,0,0,0-.56,2.1,6,6,0,0,0,.1,1.9,6.23,6.23,0,0,0,.62,1.69,8.49,8.49,0,0,0,1,1.44,9.18,9.18,0,0,0,1.26,1.23,6.67,6.67,0,0,0,1.57.92,6,6,0,0,0,1.84.41,6.86,6.86,0,0,0,2.16-.2,11.26,11.26,0,0,0,2.45-1,17.62,17.62,0,0,0,2.76-1.94,14.67,14.67,0,0,0,3.19-3.52,7.71,7.71,0,0,0,1.13-3.17,5.53,5.53,0,0,0-.36-2.74,8.55,8.55,0,0,0-1.37-2.3"></path></g><rect data-element-id="element-id-74767" stroke-width="2" fill="transparent" class="invisible-element-box grouping-element" x="179" y="115" width="191" height="191" data-element-name="isIcon"></rect><rect data-element-id="element-id-37894" stroke-width="2" fill="transparent" class="invisible-element-box individual-element" x="179" y="115" width="191" height="191"></rect><rect data-element-id="element-id-99455" stroke-width="2" fill="transparent" class="invisible-element-box individual-element" x="342" y="323" width="29" height="32"></rect><rect data-element-id="element-id-61615" stroke-width="2" fill="transparent" class="invisible-element-box individual-element" x="179" y="326" width="25" height="28"></rect><rect data-element-id="element-id-55974" stroke-width="2" fill="transparent" class="invisible-element-box individual-element" x="265" y="323" width="21" height="32"></rect><rect data-element-id="element-id-71994" stroke-width="2" fill="transparent" class="invisible-element-box individual-element" x="298" y="326" width="24" height="28"></rect><rect data-element-id="element-id-39543" stroke-width="2" fill="transparent" class="invisible-element-box individual-element" x="245" y="334" width="19" height="21"></rect><rect data-element-id="element-id-56265" stroke-width="2" fill="transparent" class="invisible-element-box individual-element" x="321" y="334" width="19" height="21"></rect><rect data-element-id="element-id-99237" stroke-width="2" fill="transparent" class="invisible-element-box individual-element" x="225" y="334" width="18" height="21"></rect><rect data-element-id="element-id-39607" stroke-width="2" fill="transparent" class="invisible-element-box individual-element" x="207" y="334" width="17" height="20"></rect></svg>